<svg width="23" height="21" viewBox="0 0 23 21" fill="none" xmlns="http://www.w3.org/2000/svg">
<path d="M20.1478 2.26121C17.6642 0.172927 13.8271 0.486599 11.4509 2.90574C9.07475 0.486599 5.23765 0.16863 2.75406 2.26121C-0.477192 4.98113 -0.0045357 9.4155 2.29859 11.7659L9.8353 19.4444C10.265 19.8827 10.8408 20.1276 11.4509 20.1276C12.0654 20.1276 12.6369 19.887 13.0665 19.4487L20.6033 11.7702C22.9021 9.4198 23.3833 4.98542 20.1478 2.26121ZM19.1337 10.3178L11.597 17.9964C11.4939 18.0995 11.408 18.0995 11.3048 17.9964L3.76812 10.3178C2.19976 8.7194 1.88179 5.69441 4.08179 3.84246C5.75327 2.43738 8.3314 2.64793 9.94702 4.29363L11.4509 5.82761L12.9548 4.29363C14.579 2.63933 17.1572 2.43738 18.8201 3.83816C21.0158 5.69011 20.6892 8.7323 19.1337 10.3178Z" fill="#F43735"/>
</svg>
